<svg width="47" height="47" viewBox="0 0 47 47" fill="none" xmlns="http://www.w3.org/2000/svg">
<path d="M36.7856 24.5208L26.3302 20.6723L22.4811 10.2106C22.2531 9.59144 21.8407 9.05711 21.2995 8.67967C20.7583 8.30224 20.1143 8.09987 19.4544 8.09987C18.7946 8.09987 18.1506 8.30224 17.6094 8.67967C17.0681 9.05711 16.6557 9.59144 16.4278 10.2106L12.5746 20.6602L2.11107 24.5086C1.49183 24.7365 0.957403 25.1489 0.579904 25.69C0.202405 26.2311 0 26.875 0 27.5347C0 28.1945 0.202405 28.8384 0.579904 29.3795C0.957403 29.9206 1.49183 30.333 2.11107 30.5609L12.5604 34.4336L16.4096 44.8893C16.6375 45.5084 17.0499 46.0428 17.5911 46.4202C18.1323 46.7976 18.7763 47 19.4362 47C20.0961 47 20.7401 46.7976 21.2813 46.4202C21.8225 46.0428 22.2349 45.5084 22.4628 44.8893L26.312 34.4356L36.7755 30.5872C37.3947 30.3593 37.9292 29.947 38.3067 29.4058C38.6842 28.8647 38.8866 28.2208 38.8866 27.5611C38.8866 26.9013 38.6842 26.2575 38.3067 25.7163C37.9292 25.1752 37.3947 24.7629 36.7755 24.535L36.7856 24.5208ZM25.1998 31.3954C24.7618 31.5561 24.3641 31.8102 24.0342 32.14C23.7043 32.4699 23.4501 32.8675 23.2894 33.3054L19.4403 43.7287L15.5992 33.2973C15.4384 32.8617 15.185 32.4662 14.8566 32.1378C14.5282 31.8095 14.1326 31.5562 13.6969 31.3954L3.27189 27.5469L13.6969 23.6984C14.1326 23.5376 14.5282 23.2843 14.8566 22.956C15.185 22.6276 15.4384 22.2321 15.5992 21.7965L19.4484 11.3732L23.2975 21.7965C23.4582 22.2344 23.7124 22.632 24.0423 22.9619C24.3722 23.2917 24.7699 23.5458 25.2079 23.7065L35.6329 27.555L25.1998 31.3954ZM25.9311 6.48162C25.9311 6.05186 26.1018 5.63971 26.4058 5.33582C26.7097 5.03194 27.1219 4.86122 27.5518 4.86122H30.7931V1.62041C30.7931 1.19065 30.9639 0.778491 31.2678 0.474606C31.5718 0.170721 31.984 0 32.4138 0C32.8437 0 33.2559 0.170721 33.5598 0.474606C33.8638 0.778491 34.0345 1.19065 34.0345 1.62041V4.86122H37.2759C37.7057 4.86122 38.118 5.03194 38.4219 5.33582C38.7258 5.63971 38.8966 6.05186 38.8966 6.48162C38.8966 6.91138 38.7258 7.32354 38.4219 7.62742C38.118 7.93131 37.7057 8.10203 37.2759 8.10203H34.0345V11.3428C34.0345 11.7726 33.8638 12.1848 33.5598 12.4886C33.2559 12.7925 32.8437 12.9632 32.4138 12.9632C31.984 12.9632 31.5718 12.7925 31.2678 12.4886C30.9639 12.1848 30.7931 11.7726 30.7931 11.3428V8.10203H27.5518C27.1219 8.10203 26.7097 7.93131 26.4058 7.62742C26.1018 7.32354 25.9311 6.91138 25.9311 6.48162ZM47 16.2041C47 16.6338 46.8293 17.046 46.5253 17.3499C46.2214 17.6537 45.8091 17.8245 45.3793 17.8245H43.7586V19.4449C43.7586 19.8746 43.5879 20.2868 43.2839 20.5907C42.98 20.8946 42.5678 21.0653 42.1379 21.0653C41.7081 21.0653 41.2959 20.8946 40.9919 20.5907C40.688 20.2868 40.5173 19.8746 40.5173 19.4449V17.8245H38.8966C38.4667 17.8245 38.0545 17.6537 37.7506 17.3499C37.4466 17.046 37.2759 16.6338 37.2759 16.2041C37.2759 15.7743 37.4466 15.3621 37.7506 15.0583C38.0545 14.7544 38.4667 14.5837 38.8966 14.5837H40.5173V12.9632C40.5173 12.5335 40.688 12.1213 40.9919 11.8174C41.2959 11.5136 41.7081 11.3428 42.1379 11.3428C42.5678 11.3428 42.98 11.5136 43.2839 11.8174C43.5879 12.1213 43.7586 12.5335 43.7586 12.9632V14.5837H45.3793C45.8091 14.5837 46.2214 14.7544 46.5253 15.0583C46.8293 15.3621 47 15.7743 47 16.2041Z" fill="#804DA1"/>
</svg>
